name analog
datacolumns 19
datarows 28
range 0.4885 0.502
endheader
time	ground_force_vx	ground_force_vy	ground_force_vz	ground_force_px	ground_force_py	ground_force_pz	l_ground_force_vx	l_ground_force_vy	l_ground_force_vz	l_ground_force_px	l_ground_force_py	l_ground_force_pz	ground_torque_x	ground_torque_y	ground_torque_z	l_ground_torque_x	l_ground_torque_y	l_ground_torque_z
0.4885	-0.0	-0.0	-0.0	1.507008075714111	59.1634635925293	-352.0446472167969	8.544666290283203	-65.27916717529297	-379.8023376464844	-0.0	-0.0	-0.0	-0.0	-0.0	-0.0	89254.0703125	12255.3564453125	-4786.41455078125
0.489	-0.0	-0.0	-0.0	0.71368408203125	57.636077880859375	-341.0096435546875	8.063126564025879	-65.11210632324219	-373.66741943359375	-0.0	-0.0	-0.0	-0.0	-0.0	-0.0	87677.515625	12052.603515625	-4928.64453125
0.4895	-0.0	-0.0	-0.0	0.0794993415474891	56.73725891113281	-334.2235717773437	7.4517059326171875	-65.0952377319336	-369.0154418945313	-0.0	-0.0	-0.0	-0.0	-0.0	-0.0	86742.09375	11571.11328125	-5021.24169921875
0.49	-0.0	-0.0	-0.0	-0.752810001373291	55.29016876220703	-328.3798828125	6.7420196533203125	-64.72050476074219	-363.9303588867188	-0.0	-0.0	-0.0	-0.0	-0.0	-0.0	85324.390625	11368.859375	-4942.35302734375
0.4905	-0.0	-0.0	-0.0	-1.8339840173721316	54.13170623779297	-320.6093139648437	6.042097568511963	-64.44567108154297	-360.2860412597656	-0.0	-0.0	-0.0	-0.0	-0.0	-0.0	84081.53125	11129.3046875	-5216.3388671875
0.491	-0.0	-0.0	-0.0	-2.6465272903442383	53.0325927734375	-310.0533142089844	5.391690254211426	-63.88595581054688	-354.00103759765625	-0.0	-0.0	-0.0	-0.0	-0.0	-0.0	83085.640625	11040.01953125	-5094.80859375
0.4915	-0.0	-0.0	-0.0	-2.9139649868011475	51.66567993164063	-301.734375	4.780484199523926	-63.14015579223633	-348.9193725585937	-0.0	-0.0	-0.0	-0.0	-0.0	-0.0	82014.0703125	10701.1328125	-5065.45458984375
0.492	-0.0	-0.0	-0.0	-3.310858964920044	50.13153076171875	-295.8451843261719	4.504302501678467	-62.208255767822266	-342.478515625	-0.0	-0.0	-0.0	-0.0	-0.0	-0.0	80351.625	10322.7509765625	-5062.15478515625
0.4925	-0.0	-0.0	-0.0	-3.142634868621826	48.76445770263672	-285.7626953125	3.7258529663085938	-61.44191360473633	-334.3751525878906	-0.0	-0.0	-0.0	-0.0	-0.0	-0.0	78419.0	10083.6357421875	-5059.19921875
0.493	-0.0	-0.0	-0.0	-3.321211338043213	46.34780883789063	-273.2102355957031	3.4013521671295166	-60.225318908691406	-327.5440368652344	-0.0	-0.0	-0.0	-0.0	-0.0	-0.0	76828.875	9869.693359375	-4987.0654296875
0.4935	-0.0	-0.0	-0.0	-3.736560106277466	44.90449905395508	-263.0508117675781	3.213955879211426	-59.08721160888672	-320.29229736328125	-0.0	-0.0	-0.0	-0.0	-0.0	-0.0	74786.0078125	10005.294921875	-4950.57421875
0.494	-0.0	-0.0	-0.0	-3.8360519409179688	43.20757675170898	-249.9439392089844	2.9172091484069824	-57.90842056274414	-310.4361267089844	-0.0	-0.0	-0.0	-0.0	-0.0	-0.0	72558.1015625	9800.5634765625	-4910.62744140625
0.4945	-0.0	-0.0	-0.0	-3.6205317974090576	41.18865966796875	-238.9146728515625	2.6035845279693604	-56.04734420776367	-300.8468017578125	-0.0	-0.0	-0.0	-0.0	-0.0	-0.0	70102.59375	9599.650390625	-4866.93115234375
0.495	-0.0	-0.0	-0.0	-3.694412708282471	38.7244987487793	-224.16514587402344	2.040348052978516	-54.95202255249024	-289.9593505859375	-0.0	-0.0	-0.0	-0.0	-0.0	-0.0	67561.0078125	9346.7568359375	-4713.318359375
0.4955	-0.0	-0.0	-0.0	-2.865293264389038	36.428489685058594	-213.52964782714844	1.8055896759033203	-53.278804779052734	-281.5396728515625	-0.0	-0.0	-0.0	-0.0	-0.0	-0.0	65388.9609375	9389.9951171875	-4584.00830078125
0.496	-0.0	-0.0	-0.0	-2.744257926940918	34.21131896972656	-201.64935302734372	1.6749705076217651	-52.16665649414063	-270.8587341308594	-0.0	-0.0	-0.0	-0.0	-0.0	-0.0	62986.1484375	9185.021484375	-4580.3212890625
0.4965	-0.0	-0.0	-0.0	-2.397986888885498	32.967559814453125	-193.28851318359372	1.2949366569519043	-50.90886306762695	-261.7803039550781	-0.0	-0.0	-0.0	-0.0	-0.0	-0.0	60475.578125	9175.638671875	-4573.185546875
0.497	-0.0	-0.0	-0.0	-1.8380837440490725	30.59325790405273	-181.84500122070312	0.6209754943847656	-49.173927307128906	-252.8697967529297	-0.0	-0.0	-0.0	-0.0	-0.0	-0.0	58517.171875	9033.9150390625	-4447.37744140625
0.4975	-0.0	-0.0	-0.0	-1.9084392786026	28.57587242126465	-169.16326904296875	0.4407450556755066	-47.09684371948242	-244.01470947265625	-0.0	-0.0	-0.0	-0.0	-0.0	-0.0	56357.6640625	8898.5234375	-4286.861328125
0.498	-0.0	-0.0	-0.0	-1.4729430675506592	27.32839775085449	-162.23915100097656	0.4975931048393249	-45.69459533691406	-235.6773376464844	-0.0	-0.0	-0.0	-0.0	-0.0	-0.0	54351.921875	8848.6484375	-4167.8330078125
0.4985	-0.0	-0.0	-0.0	-1.2159873247146606	25.936946868896484	-153.9864501953125	0.843567430973053	-44.193355560302734	-229.04345703125	-0.0	-0.0	-0.0	-0.0	-0.0	-0.0	52093.95703125	8670.4169921875	-4059.494384765625
0.499	-0.0	-0.0	-0.0	-0.3126431405544281	24.633922576904297	-146.04150390625	0.7206341624259949	-42.01820373535156	-221.01296997070312	-0.0	-0.0	-0.0	-0.0	-0.0	-0.0	50549.24609375	8625.7646484375	-3907.1318359375
0.4995	-0.0	-0.0	-0.0	-0.100331611931324	23.118349075317383	-137.74017333984375	1.7081025838851929	-40.80461883544922	-213.1125946044922	-0.0	-0.0	-0.0	-0.0	-0.0	-0.0	48900.36328125	8234.5205078125	-3732.08056640625
0.5	-0.0	-0.0	-0.0	0.1784210205078125	21.692251205444336	-130.58938598632812	1.4415630102157593	-38.81740951538086	-207.83255004882807	-0.0	-0.0	-0.0	-0.0	-0.0	-0.0	47218.9453125	8043.92431640625	-3364.580810546875
0.5005000000000001	-0.0	-0.0	-0.0	1.1813790798187256	20.812389373779297	-124.80626678466795	1.9516372680664065	-38.23218536376953	-203.16232299804688	-0.0	-0.0	-0.0	-0.0	-0.0	-0.0	46250.8984375	7794.3525390625	-3171.181396484375
0.501	-0.0	-0.0	-0.0	1.1824147701263428	20.221271514892575	-121.23049926757812	2.2290050983428955	-37.22700500488281	-197.27066040039065	-0.0	-0.0	-0.0	-0.0	-0.0	-0.0	45250.34375	7793.92333984375	-2996.42431640625
0.5015000000000001	-0.0	-0.0	-0.0	1.8506158590316768	19.06452178955078	-117.47349548339844	2.4274089336395264	-35.80403137207031	-195.39149475097656	-0.0	-0.0	-0.0	-0.0	-0.0	-0.0	44379.4140625	7397.2109375	-2788.231689453125
0.502	-0.0	-0.0	-0.0	2.017423391342163	19.03951835632324	-112.7098159790039	2.9274559020996094	-35.17466735839844	-190.94119262695312	-0.0	-0.0	-0.0	-0.0	-0.0	-0.0	44001.70703125	7677.3173828125	-2413.441162109375
